<svg id="fi_4437690" enable-background="new 0 0 512 512" height="512" viewBox="0 0 512 512" width="512" xmlns="http://www.w3.org/2000/svg"><g><g><path d="m512 256c0 65.229-24.412 124.774-64.594 169.984h-.01l-21.34 9.595c-108.165 48.609-231.946 48.609-340.111 0l-21.34-9.595h-.01c-40.183-45.21-64.595-104.755-64.595-169.984 0-46.08 12.186-89.344 33.536-126.72.051-.102.102-.205.154-.256 44.083-77.107 127.129-129.024 222.31-129.024s178.227 51.917 222.31 129.024c.051.051.103.154.154.256 21.35 37.376 33.536 80.64 33.536 126.72z" fill="#ff3ea8"></path><g><path d="m512 256c0 65.229-24.412 124.774-64.594 169.984h-.01l-21.34 9.595c-108.165 48.609-231.946 48.609-340.111 0l-21.34-9.595h-.01c-40.183-45.21-64.595-104.755-64.595-169.984 0-46.08 12.186-89.344 33.536-126.72.051-.102.102-.205.154-.256 25.395 44.39 63.693 80.435 109.824 103.014 5.222 2.56 10.598 4.966 16.025 7.168 29.031 11.827 60.723 18.483 93.901 18.79h5.12c33.178-.307 64.87-6.963 93.901-18.79 5.427-2.202 10.803-4.608 16.026-7.168 46.08-22.579 84.429-58.624 109.824-103.014.051.051.103.154.154.256 21.349 37.376 33.535 80.64 33.535 126.72z" fill="#ff0074"></path></g></g><g><g><g><g><g><path d="m256.005 512c-76.155 0-144.527-33.249-191.416-86.016h191.411l6.804 12.769c11.797 22.129-6.799 73.247-6.799 73.247z" fill="#384c81"></path><path d="m447.411 425.984c-46.827 52.685-115.067 85.914-191.058 86.016h-.348l-.005-86.016z" fill="#303b5a"></path></g></g></g></g></g><g><g><path d="m257.413 405.207-1.413 6.4h-15.36v-101.847h15.36l2.437 12.462c5.366 27.433 5.018 55.685-1.024 82.985z" fill="#9dd6ed"></path><path d="m256 309.76h15.36v101.847h-15.36z" fill="#76caea"></path></g><g><path d="m256.287 395.387-.287-.123h-86.19v30.72h86.19c13.517-5.632 13.701-24.719.287-30.597z" fill="#fff"></path><path d="m256 395.264h86.19v30.72h-86.19z" fill="#dff0f8"></path></g><g><g><path d="m256 364.365h-193.465v-251.86h193.465l2.905 3.19c64.5 70.79 63.235 179.41-2.905 248.67z" fill="#fff"></path><path d="m256 112.505h193.465v251.86h-193.465z" fill="#dff0f8"></path></g><path d="m280.177 166.594-24.177-23.367h-162.744v190.423h162.744l21.903-19.896c43.131-39.179 44.176-106.671 2.274-147.16z" fill="#303b5a"></path><path d="m256 143.227h162.744v190.423h-162.744z" fill="#243047"></path></g><g><path d="m190.33 194.489v7.572c0 5.951-4.825 10.773-10.773 10.773v-18.345z" fill="#0069d1"></path><g><path d="m188.655 280.026-9.098 11.594h-5.002l-7.209-6.338c-4.795-4.215-11.963-4.246-16.796-.078l-7.436 6.416h-7.297v-84.636h43.74l9.098 11.594c14.154 18.037 14.154 43.412 0 61.448z" fill="#fff"></path><path d="m179.557 206.985h43.74v84.636h-43.74z" fill="#dff0f8"></path><g><path d="m185.416 213.421-5.86 4.998c-5.897 0-11.794-.441-17.643-1.326l-36.219-5.483 8.504-28.467c.705-2.359 2.874-3.975 5.336-3.975h40.022l5.202 4.066c9.719 7.589 10.034 22.181.658 30.187z" fill="#00b3ff"></path><path d="m179.557 179.169v39.251c5.897 0 11.794-.441 17.643-1.326l36.219-5.483-8.505-28.467c-.705-2.359-2.874-3.975-5.336-3.975z" fill="#0275fa"></path><g><path d="m136.467 229.956c-5.95 0-10.772-4.823-10.772-10.772v-7.571h21.545v7.571c-.001 5.949-4.824 10.772-10.773 10.772z" fill="#0275fa"></path><path d="m158.012 229.956c-5.949 0-10.772-4.823-10.772-10.772v-7.571h21.545v7.571c-.001 5.949-4.824 10.772-10.773 10.772z" fill="#0069d1"></path><path d="m182.812 226.402-3.255 3.554c-5.948 0-10.773-4.822-10.773-10.773v-7.572h10.773l3.255 3.554c2.916 3.176 2.916 8.059 0 11.237z" fill="#0275fa"></path><path d="m201.101 229.956c-5.949 0-10.772-4.823-10.772-10.772v-7.571h21.545v7.571c0 5.949-4.823 10.772-10.773 10.772z" fill="#005ca8"></path><path d="m222.646 229.956c-5.95 0-10.773-4.823-10.773-10.772v-7.571h21.545v7.571c.001 5.949-4.822 10.772-10.772 10.772z" fill="#0069d1"></path><path d="m153.055 179.169-5.816 32.444h21.545l1.939-32.444z" fill="#0275fa"></path><path d="m188.391 179.169 1.938 32.444h21.545l-5.816-32.444z" fill="#0069d1"></path></g></g></g><path d="m174.555 247.145v44.48h-31.44v-47.64h28.28c1.75 0 3.16 1.41 3.16 3.16z" fill="#00b3ff"></path><path d="m158.985 243.985h15.57v47.64h-15.57z" fill="#0275fa"></path><path d="m190.33 211.61v7.572c0 5.951-4.825 10.773-10.773 10.773v-18.345z" fill="#0069d1"></path><path d="m184.835 243.975h33.18v22.79h-33.18z" fill="#303b5a"></path><path d="m160.17 252.339c-.655-.656-1.718-.656-2.374 0l-6.291 6.288 2.405.595 5.072-5.07 5.07 5.07 2.405-.595z" fill="#fff"></path><path d="m150.465 258.625h17.03v8.88h-17.03z" fill="#ffe706"></path><path d="m158.985 258.625h8.51v8.88h-8.51z" fill="#ffbf03"></path></g><g fill="#fff"><path d="m281.966 179.169h107.705v13.521h-107.705z"></path><path d="m311.094 206.21h78.577v13.521h-78.577z"></path><path d="m335.819 233.251h53.853v13.521h-53.853z"></path></g><path d="m291.947 278.1h97.725v13.521h-97.725z" fill="#0275fa"></path><g><g><path d="m256 291.332c-11.671 0-21.138-9.467-21.138-21.181 0-11.671 9.467-21.137 21.138-21.137l.043.043c7.305 13.141 7.305 29.135-.043 42.275z" fill="#ffbf03"></path><path d="m277.154 270.172c0 11.682-9.472 21.16-21.154 21.16v-42.318c11.682 0 21.154 9.476 21.154 21.158z" fill="#f18900"></path><g><g><path d="m256.003 284.449c-7.874 0-14.261-6.387-14.261-14.291 0-7.874 6.387-14.261 14.261-14.261l.029.029c4.929 8.866 4.929 19.657-.029 28.523z" fill="#ffe706"></path><path d="m270.276 270.172c0 7.882-6.391 14.277-14.273 14.277v-28.552c7.882.001 14.273 6.393 14.273 14.275z" fill="#ffbf03"></path></g></g><path d="m256.759 266.724-.757-8.065h-1.147v2.371c-.172.039-.348.084-.526.136-1.663.5-2.904 1.923-3.242 3.713-.309 1.634.214 3.206 1.364 4.109.607.477 1.367.913 2.404 1.377v6.967c-.896-.065-1.52-.286-2.537-.952l-.974-.637-1.273 1.946.975.637c1.484.971 2.501 1.26 3.81 1.335v2.42h1.147l.754-7.919c.236-2.474.236-4.966.002-7.438zm-1.903 1.053c-.364-.198-.695-.403-.968-.617-.465-.364-.663-1.072-.517-1.848.133-.695.591-1.53 1.484-1.868v4.333z" fill="#ffbf03"></path></g><path d="m258.208 269.18c-.338-.12-.682-.247-1.027-.377v-5.496c.858.208 1.371.637 1.426.685l.848.78 1.575-1.709-.854-.786c-.068-.062-1.176-1.062-2.995-1.335v-2.284h-1.179v23.423h1.179v-2.514c2.608-.51 4.132-2.66 4.466-4.668.436-2.581-.915-4.829-3.439-5.719zm1.15 5.334c-.179 1.065-.919 2.193-2.176 2.641v-5.873c.084.029.166.059.253.088 2.147.759 2.014 2.598 1.923 3.144z" fill="#f18900"></path></g></g></g></svg>
